<?xml version="1.0" standalone="no"?>
<!DOCTYPE svg PUBLIC "-//W3C//DTD SVG 20010904//EN"
 "http://www.w3.org/TR/2001/REC-SVG-20010904/DTD/svg10.dtd">
<svg version="1.0" xmlns="http://www.w3.org/2000/svg"
 width="316.000000pt" height="316.000000pt" viewBox="0 0 316.000000 316.000000"
 preserveAspectRatio="xMidYMid meet">
<metadata>
Created by potrace 1.14, written by Peter Selinger 2001-2017
</metadata>
<g transform="translate(0.000000,316.000000) scale(0.100000,-0.100000)"
fill="#000000" stroke="none">
<path d="M1426 2871 c-3 -4 -4 -18 -1 -30 3 -19 2 -20 -18 -9 -21 10 -21 10
-7 -7 14 -17 14 -18 -10 -5 -22 12 -24 12 -12 -2 10 -13 10 -18 1 -24 -8 -4
-9 -3 -5 4 5 8 0 11 -16 9 -21 -4 -25 -14 -11 -27 4 -3 3 1 -2 9 -6 10 -4 12
4 7 9 -6 9 -12 -1 -24 -20 -27 -22 -28 -14 -8 5 14 2 17 -9 12 -8 -3 -15 -1
-15 4 0 6 -5 10 -12 10 -6 0 -3 -10 8 -22 10 -13 15 -20 10 -16 -5 4 -15 3
-23 -3 -7 -6 -13 -8 -13 -3 0 5 -5 2 -11 -6 -9 -13 -10 -12 -5 3 3 9 1 17 -4
17 -9 0 -15 -22 -11 -43 1 -5 -3 -6 -8 -3 -5 4 -13 2 -16 -4 -4 -6 -1 -9 6 -8
7 2 13 -9 14 -24 1 -15 -2 -25 -7 -22 -4 3 -6 9 -3 14 3 5 1 11 -4 14 -5 4 -7
-7 -4 -25 4 -25 2 -31 -10 -26 -8 3 -23 -1 -34 -9 -10 -9 -13 -13 -6 -10 7 4
11 -1 10 -13 -1 -16 -4 -18 -16 -8 -12 10 -13 9 -7 -1 4 -7 3 -19 -3 -26 -8
-9 -7 -13 4 -13 8 0 12 4 9 9 -3 4 -1 8 5 8 5 0 9 -9 8 -20 -1 -11 -7 -18 -13
-16 -13 5 -13 -19 1 -31 4 -4 5 -2 0 6 -5 9 -4 12 3 8 13 -9 10 -30 -7 -51
-12 -14 -12 -16 2 -10 15 5 15 2 5 -27 -6 -19 -16 -38 -22 -42 -7 -6 -4 -7 7
-3 20 6 22 -5 5 -23 -11 -10 -10 -11 3 -6 10 4 16 0 17 -10 1 -8 3 -22 4 -29
1 -11 6 -12 20 -5 18 10 22 2 21 -38 -1 -7 3 -10 8 -7 5 3 9 0 9 -7 0 -7 3
-10 6 -7 3 4 0 17 -7 30 -8 15 1 10 25 -15 35 -38 46 -54 26 -42 -5 3 -10 1
-10 -4 0 -6 5 -11 10 -11 6 0 10 -5 10 -11 0 -5 -5 -7 -12 -3 -6 4 -8 3 -4 -4
3 -6 2 -13 -4 -17 -6 -4 -8 -11 -4 -16 3 -5 10 -7 15 -4 5 4 9 1 9 -5 0 -6 5
-8 10 -5 6 3 10 1 10 -6 0 -8 4 -8 15 1 9 7 18 10 22 6 3 -3 1 -6 -5 -6 -7 0
-12 -7 -12 -16 0 -9 -5 -12 -12 -8 -7 4 -8 3 -4 -4 4 -6 13 -9 20 -6 8 3 17 0
21 -6 3 -6 3 -10 -2 -9 -20 4 -34 -2 -28 -12 4 -6 0 -9 -11 -7 -12 2 -18 -2
-16 -11 2 -8 -3 -11 -12 -8 -9 4 -18 1 -22 -5 -4 -6 -3 -8 4 -4 6 3 13 2 17
-4 3 -6 -3 -10 -16 -10 -17 0 -19 -3 -10 -14 9 -11 6 -12 -14 -8 -16 3 -25 0
-25 -8 0 -7 -6 -10 -14 -7 -10 4 -14 0 -11 -13 2 -11 -1 -23 -7 -26 -6 -4 -8
-3 -5 3 4 6 0 13 -8 17 -19 7 -31 -14 -14 -25 9 -6 4 -8 -16 -6 -25 2 -30 -1
-27 -18 2 -16 1 -17 -7 -5 -9 13 -12 13 -23 1 -11 -11 -11 -13 1 -6 10 6 11 2
6 -15 -5 -15 -2 -25 6 -31 11 -7 9 -9 -6 -10 -11 -1 -24 -1 -28 0 -5 1 -6 -3
-3 -8 4 -5 -3 -13 -15 -16 -11 -4 -18 -9 -15 -12 3 -3 17 2 30 11 16 10 27 12
31 6 4 -6 1 -9 -7 -8 -7 2 -12 -2 -11 -9 2 -7 -4 -10 -12 -7 -8 4 -15 1 -15
-6 0 -6 -4 -8 -10 -5 -6 4 -10 -6 -10 -24 0 -16 -5 -33 -10 -36 -7 -4 -7 -12
0 -24 12 -24 2 -33 -21 -20 -15 8 -17 6 -12 -7 4 -12 3 -15 -5 -10 -7 4 -12 1
-12 -9 0 -9 5 -13 10 -10 6 3 10 4 10 0 0 -3 -10 -10 -22 -15 -21 -8 -21 -9
-3 -10 16 0 17 -2 6 -9 -8 -5 -16 -17 -17 -25 -1 -9 2 -14 7 -10 5 3 7 9 5 13
-3 4 1 8 9 8 11 0 12 -4 4 -14 -6 -7 -9 -22 -6 -34 4 -15 2 -19 -9 -15 -7 3
-13 2 -13 -2 4 -23 -3 -41 -17 -46 -15 -6 -15 -4 -3 11 13 17 1 9 -41 -26 -3
-2 3 -1 13 2 11 4 17 1 17 -9 0 -11 -5 -14 -17 -9 -15 5 -16 4 -5 -6 14 -15
16 -33 2 -24 -6 3 -10 1 -10 -4 0 -6 4 -11 9 -11 5 0 12 -7 15 -16 4 -12 2
-15 -9 -10 -13 5 -13 2 1 -19 9 -14 13 -25 9 -25 -4 0 -2 -6 4 -14 8 -10 9
-16 1 -21 -6 -3 -8 -10 -5 -15 3 -4 -3 -14 -12 -21 -15 -12 -16 -12 -8 1 13
21 15 41 4 34 -5 -3 -7 -9 -4 -14 3 -5 0 -12 -6 -16 -9 -5 -7 -11 5 -20 15
-10 12 -12 -20 -9 -26 3 -34 1 -26 -7 11 -11 5 -41 -7 -34 -3 2 -6 -7 -6 -20
0 -13 5 -22 10 -20 6 2 10 -11 10 -30 0 -18 -3 -30 -7 -28 -5 3 -6 9 -3 14 3
4 -3 14 -13 21 -15 12 -16 12 -6 -1 6 -8 10 -23 9 -33 -3 -15 7 -22 28 -18 5
1 6 -3 2 -8 -3 -7 -15 -7 -29 -1 -21 8 -23 6 -19 -13 4 -18 3 -19 -6 -7 -8 12
-13 12 -23 2 -7 -7 -13 -20 -13 -30 0 -10 -7 -16 -17 -16 -10 1 -16 -2 -13 -6
3 -5 -4 -11 -15 -15 -11 -4 -17 -11 -14 -17 4 -6 10 -5 15 3 5 8 9 10 9 4 0
-5 -5 -17 -10 -25 -6 -10 -10 -11 -10 -2 0 6 -4 12 -10 12 -5 0 -6 -7 -3 -17
4 -11 3 -14 -6 -9 -6 4 -18 3 -25 -3 -10 -8 -16 -7 -25 3 -7 8 -20 12 -28 9
-12 -5 -14 -3 -8 8 8 12 6 12 -8 0 -10 -8 -17 -9 -17 -3 0 6 5 14 10 17 15 9
2 25 -15 19 -8 -4 -12 -11 -8 -17 4 -6 1 -7 -6 -3 -9 6 -8 13 5 27 17 19 17
19 -21 4 -33 -14 -37 -15 -32 -1 4 11 1 13 -10 9 -12 -5 -14 -3 -8 8 7 12 5
12 -6 1 -12 -11 -12 -14 1 -22 13 -8 13 -10 -2 -10 -9 0 -18 5 -20 12 -2 6
-11 12 -20 14 -9 1 -15 -3 -12 -10 2 -6 -5 -12 -16 -13 -11 -1 -20 3 -20 8 0
6 4 8 8 5 5 -3 9 1 9 9 0 11 -4 12 -14 3 -7 -6 -16 -8 -20 -4 -3 3 -17 -1 -31
-10 -13 -9 -21 -11 -18 -5 5 7 -2 11 -16 12 -30 2 -30 2 -52 -7 -15 -6 -18 -4
-12 7 4 8 0 5 -8 -5 -9 -11 -16 -24 -16 -29 0 -4 -4 -5 -10 -2 -5 3 -10 -1
-10 -9 0 -9 6 -16 13 -16 8 0 7 -3 -3 -9 -19 -13 -30 -4 -24 17 5 14 3 14 -10
-2 -8 -10 -13 -23 -10 -27 3 -5 0 -9 -6 -9 -7 0 -10 6 -7 13 3 8 -3 14 -14 14
-13 1 -17 -2 -12 -10 4 -7 -2 -5 -12 3 -11 9 -16 10 -11 3 4 -7 2 -13 -3 -13
-6 0 -11 5 -11 11 0 8 -4 8 -15 -1 -18 -15 -36 -5 -29 18 5 14 4 14 -4 3 -6
-8 -8 -20 -5 -28 3 -8 0 -11 -9 -8 -9 4 -14 -2 -15 -17 -2 -16 0 -19 6 -10 7
11 10 10 14 -3 4 -9 3 -13 -2 -10 -5 3 -12 1 -16 -5 -3 -5 -1 -10 4 -10 6 0 3
-9 -6 -19 -9 -11 -21 -17 -26 -14 -6 3 -7 1 -3 -6 4 -6 12 -9 17 -6 5 3 6 -1
2 -10 -3 -9 -9 -13 -12 -8 -3 4 -12 9 -18 11 -16 3 -18 -114 -3 -123 6 -4 8
-10 5 -15 -6 -10 21 -7 31 3 14 14 26 7 14 -8 -7 -8 -8 -15 -3 -15 5 0 10 -7
10 -15 0 -8 -4 -15 -9 -15 -14 0 -9 -22 10 -37 9 -8 31 -20 47 -28 17 -8 23
-14 14 -15 -9 0 -28 9 -42 20 -16 13 -28 17 -32 10 -4 -6 -3 -10 2 -8 13 3 73
-36 73 -48 0 -6 12 -16 28 -23 l27 -12 -25 21 c-24 21 -24 21 -2 10 13 -6 30
-9 38 -6 9 3 14 -1 14 -12 0 -15 2 -15 10 -2 7 11 10 11 10 2 0 -7 4 -11 9 -8
5 3 11 -1 15 -9 3 -8 -2 -19 -11 -23 -11 -7 -1 -9 31 -7 26 1 50 -3 53 -8 3
-6 1 -7 -5 -3 -7 4 -12 2 -12 -3 0 -12 13 -14 24 -4 3 4 13 8 21 9 11 2 12 -3
5 -22 -7 -17 -6 -23 2 -21 7 1 12 -5 13 -13 0 -10 9 -14 25 -14 14 1 29 -3 33
-10 6 -7 7 -6 4 4 -2 9 -15 15 -30 14 -15 -1 -24 2 -22 7 3 4 17 5 33 3 15 -2
36 -5 47 -7 11 -1 21 -10 23 -21 3 -13 0 -16 -9 -11 -7 5 -10 4 -5 -3 4 -6 14
-8 23 -5 12 5 15 2 10 -10 -3 -9 -1 -19 5 -23 7 -4 8 -3 4 4 -4 7 -2 12 3 12
6 0 11 -6 12 -12 0 -7 4 -4 9 7 7 17 9 17 9 3 1 -10 6 -18 12 -18 5 0 8 4 5 8
-3 5 1 9 9 9 8 0 13 -5 12 -10 -1 -5 5 -12 13 -14 11 -3 12 -2 3 4 -10 7 -10
13 1 29 14 18 14 18 13 0 -1 -10 4 -21 12 -24 8 -3 11 0 7 7 -4 6 -2 11 3 11
6 0 11 -5 11 -12 0 -6 7 -3 15 8 11 14 14 15 9 3 -3 -10 0 -20 7 -25 7 -4 10
-3 6 3 -4 6 2 13 13 16 11 3 18 1 14 -4 -5 -8 17 -14 39 -10 5 1 6 -3 2 -9 -3
-6 -10 -8 -15 -5 -4 3 -6 -4 -3 -15 5 -20 12 -20 851 -20 465 0 842 3 839 7
-4 3 -1 13 6 21 8 11 8 14 0 9 -6 -4 -14 -3 -18 3 -3 5 3 10 14 10 12 0 21 4
21 8 0 4 9 8 20 9 13 1 18 -2 13 -10 -4 -7 2 -5 12 3 17 14 18 13 12 -4 -6
-16 -5 -17 8 -6 8 7 12 17 8 23 -4 6 -1 7 6 3 7 -5 10 -15 6 -25 -5 -12 -3
-13 6 -4 6 6 18 9 25 6 8 -3 14 0 14 7 0 6 -4 9 -9 5 -5 -3 -12 -1 -15 4 -4 5
1 8 10 7 8 -1 20 -9 25 -17 7 -12 9 -12 9 1 0 13 1 13 10 0 9 -14 11 -13 14 9
0 5 5 13 10 18 5 4 6 3 3 -3 -7 -12 21 -29 31 -19 3 3 0 5 -7 5 -8 0 -9 5 -2
19 6 10 8 21 6 25 -3 3 -2 4 2 1 3 -3 13 1 21 8 12 9 16 9 19 0 3 -7 9 -13 14
-13 6 0 8 4 5 9 -9 13 16 20 36 10 13 -7 16 -5 13 11 -2 11 -1 19 3 19 4 -1
14 -1 22 0 11 1 12 3 3 9 -9 6 -7 11 7 20 15 9 18 9 14 -1 -3 -8 2 -14 11 -14
9 0 14 6 11 14 -3 8 -1 11 5 8 5 -4 16 -1 24 5 8 7 15 8 15 3 0 -5 7 -10 15
-10 11 0 12 4 4 13 -7 9 -7 18 1 31 10 16 10 16 5 -3 -3 -13 -1 -21 8 -21 9 0
13 9 11 24 -1 12 2 25 6 28 5 3 7 -3 5 -13 -2 -11 3 -19 10 -19 8 0 12 3 10 7
-2 3 11 11 28 18 27 10 29 9 15 -2 -22 -16 -23 -23 -4 -23 8 0 14 5 13 11 -1
6 4 10 11 8 10 -2 10 2 1 20 -12 22 -11 22 6 8 11 -9 16 -10 11 -2 -7 11 5 17
28 13 5 -1 3 6 -5 15 -8 10 -9 15 -3 11 7 -4 14 2 17 13 4 14 11 18 24 14 14
-5 15 -4 4 4 -12 8 -12 14 -3 25 7 7 9 17 5 21 -4 4 -1 12 7 17 11 8 9 9 -10
4 -24 -6 -24 -5 -6 9 17 14 21 14 36 1 16 -14 17 -10 19 51 2 61 0 68 -25 89
-29 25 -40 55 -21 55 7 0 4 5 -5 11 -10 5 -15 16 -11 24 3 11 1 13 -10 9 -8
-3 -18 0 -23 7 -4 8 -3 10 4 5 8 -5 10 -2 6 8 -5 12 -9 13 -19 3 -7 -7 -11
-15 -8 -19 2 -5 -1 -8 -6 -8 -14 0 -14 13 0 27 8 8 7 13 -3 18 -7 5 -10 5 -6
0 12 -13 -24 -33 -50 -29 -13 3 -21 1 -18 -4 3 -5 -1 -9 -9 -9 -13 0 -12 4 2
19 9 10 13 21 10 25 -4 3 -7 1 -7 -5 0 -7 -6 -12 -14 -12 -8 0 -17 -6 -20 -12
-3 -7 -3 -3 0 10 3 13 1 22 -6 22 -6 0 -9 4 -6 9 3 5 -4 11 -15 14 -12 3 -19
10 -15 15 3 5 -1 9 -8 9 -8 0 -12 -5 -10 -12 3 -6 -5 -11 -16 -12 -11 -1 -20
3 -20 8 0 6 4 8 8 5 5 -3 9 1 9 9 0 11 -4 12 -14 3 -7 -6 -16 -8 -20 -4 -3 3
-17 -1 -31 -10 -13 -9 -22 -12 -18 -6 3 5 -6 12 -21 15 -26 5 -26 4 -8 -9 10
-8 13 -14 7 -14 -7 0 -20 8 -29 18 -17 17 -19 17 -36 -3 -10 -11 -15 -14 -11
-6 6 11 0 13 -30 8 -34 -5 -36 -4 -24 11 12 15 11 15 -11 -1 -20 -13 -28 -14
-40 -4 -9 6 -7 1 4 -12 l20 -24 -21 11 c-17 9 -24 9 -33 -2 -6 -7 -8 -16 -4
-19 11 -12 -17 -35 -42 -35 -23 1 -30 9 -26 31 0 4 -2 6 -6 6 -28 -4 -44 3
-41 18 2 12 -4 18 -19 19 -44 3 -44 3 -32 27 11 21 11 21 -6 7 -17 -14 -17
-13 -10 10 7 22 6 23 -8 11 -14 -11 -18 -11 -23 3 -3 9 -10 13 -15 10 -10 -6
-11 -2 -12 54 0 20 -6 41 -11 45 -7 5 -5 7 4 4 8 -2 15 -9 15 -14 0 -6 3 -15
7 -19 4 -3 5 4 2 17 -3 13 -8 36 -11 51 -3 16 -11 28 -19 28 -7 0 -11 6 -8 13
3 8 -2 14 -10 14 -8 0 -13 -4 -10 -8 2 -4 1 -10 -4 -13 -4 -2 -9 4 -9 15 -1
10 4 19 10 19 7 0 6 4 -3 9 -8 6 -18 7 -22 5 -4 -3 -8 0 -8 6 0 7 7 10 15 7 8
-4 17 -1 21 5 4 6 3 8 -3 5 -17 -11 -22 29 -8 57 11 20 11 27 1 35 -7 6 -15 8
-19 5 -3 -3 -4 2 -2 13 1 10 7 17 13 16 11 -3 10 22 -1 33 -4 4 -1 14 5 23 10
13 10 14 -2 4 -8 -7 -20 -13 -28 -13 -12 0 -12 3 -2 15 11 13 10 14 -5 8 -14
-5 -17 -3 -12 10 3 9 3 16 -1 16 -21 -3 -24 3 -6 17 10 8 13 13 7 9 -7 -3 -13
0 -14 7 0 7 -2 21 -4 31 -2 12 1 17 10 13 9 -3 12 0 8 9 -3 8 -10 12 -17 8 -6
-3 -8 -2 -3 2 4 5 -3 19 -15 32 -12 12 -18 26 -15 30 4 3 7 2 7 -4 0 -6 12
-18 28 -28 l27 -17 -29 28 c-34 33 -57 40 -49 16 4 -10 3 -14 -1 -10 -4 3 -8
12 -10 20 -1 7 -5 18 -9 25 -5 7 0 10 15 6 16 -3 19 -2 10 5 -14 10 -13 43 1
53 5 3 2 9 -6 12 -11 4 -15 0 -12 -14 2 -10 0 -19 -6 -19 -5 0 -9 7 -9 16 0 8
-6 22 -14 30 -17 17 -30 19 -20 2 4 -7 3 -8 -4 -4 -6 4 -8 14 -5 23 4 11 3 14
-5 9 -8 -5 -10 -2 -6 8 3 9 11 13 18 10 6 -3 2 2 -8 10 -17 14 -18 16 -3 16 9
0 17 5 17 11 0 6 -7 8 -16 5 -14 -6 -15 -4 -4 9 7 9 9 15 4 14 -21 -4 -35 2
-28 12 5 8 1 8 -14 0 -17 -9 -19 -8 -16 7 7 27 -20 55 -54 57 -17 1 -29 -2
-26 -7 3 -5 14 -6 24 -3 19 6 50 -18 50 -38 0 -6 -7 -1 -16 11 -10 15 -22 21
-34 17 -10 -3 -25 1 -33 9 -8 8 -17 13 -20 10 -2 -3 -7 7 -11 21 -5 21 -10 24
-25 15 -17 -9 -19 -6 -16 17 2 24 1 25 -10 10 -11 -16 -13 -16 -19 -2 -3 9 -2
13 4 10 9 -6 14 14 11 42 -1 6 9 10 24 8 14 -1 23 0 20 3 -2 3 1 12 8 20 10
13 9 15 -7 9 -16 -6 -17 -5 -6 8 7 8 17 12 24 9 6 -3 3 1 -6 9 -16 13 -18 51
-3 66 4 3 4 -7 1 -22 -3 -16 -1 -25 5 -22 5 4 9 16 9 28 0 18 2 19 10 7 7 -11
10 -11 10 -2 0 8 5 10 13 6 8 -5 7 -2 -2 10 -13 15 -12 18 7 23 13 3 19 10 15
17 -4 6 2 4 12 -4 17 -14 18 -14 7 6 -10 19 -9 21 16 16 26 -4 27 -4 7 13 -11
9 -15 14 -8 11 8 -4 11 3 11 21 -1 45 1 55 11 48 5 -3 13 0 17 6 4 8 3 9 -4 5
-7 -4 -12 -2 -12 4 0 6 -4 9 -8 6 -5 -3 -9 2 -9 10 0 9 6 13 14 10 9 -4 11 -1
7 5 -4 6 -1 15 6 19 8 5 7 9 -5 13 -10 5 -14 3 -9 -5 4 -6 3 -9 -2 -5 -8 4
-10 41 -5 84 0 7 9 10 19 7 16 -5 16 -5 0 6 -10 6 -15 18 -12 28 3 9 -1 6 -9
-7 -12 -20 -15 -21 -20 -7 -4 10 -3 15 3 11 6 -3 10 4 9 17 0 13 -3 17 -6 11
-6 -16 -33 -17 -33 -2 0 5 -4 7 -10 4 -6 -4 -7 1 -3 11 5 13 3 15 -7 9 -8 -5
-11 -4 -7 2 4 6 -4 20 -18 33 -13 12 -22 30 -20 40 2 10 -3 24 -11 30 -14 13
-9 34 6 25 5 -3 12 -1 15 5 4 6 3 10 -2 9 -4 -1 -21 -1 -38 0 -23 1 -27 3 -15
11 9 6 10 10 3 10 -6 0 -15 -5 -18 -10 -4 -6 -11 -8 -16 -5 -5 4 -9 0 -9 -7 0
-9 -3 -9 -10 2 -5 8 -15 15 -22 15 -7 0 -14 6 -14 13 -1 6 -2 19 -3 27 -1 13
-25 15 -150 15 -83 0 -152 -4 -155 -9z m82 -235 c19 -12 53 -16 47 -5 -4 5 -1
9 4 9 6 0 11 -8 12 -17 1 -12 4 -10 9 7 5 15 8 18 9 8 1 -11 7 -15 23 -10 16
4 19 2 13 -8 -5 -9 -4 -11 4 -6 8 6 9 12 2 20 -8 9 -6 12 7 11 9 0 23 -4 30
-9 7 -4 20 -2 28 5 12 10 15 10 12 -2 -2 -9 4 -13 17 -11 l20 4 -20 -16 c-19
-15 -19 -15 5 -9 l25 6 -25 -23 -25 -22 25 7 c22 7 23 6 11 -9 -11 -13 -11
-16 0 -17 8 0 5 -4 -6 -9 -17 -7 -17 -9 -2 -9 15 -1 22 -12 18 -34 -1 -5 3 -6
9 -2 6 3 7 11 4 17 -4 7 -2 8 5 4 6 -4 9 -18 7 -32 -3 -14 -1 -22 5 -19 5 4 7
10 5 14 -3 4 1 8 9 8 20 0 19 -13 -1 -21 -8 -3 -13 -10 -10 -15 3 -4 -5 -7
-19 -6 -13 2 -30 -4 -37 -13 -10 -12 -10 -14 0 -8 19 11 14 -12 -5 -24 -17
-11 -17 -11 1 -6 14 5 17 2 12 -10 -4 -9 -1 -23 6 -32 12 -14 10 -14 -12 -2
-24 13 -24 12 -10 -5 14 -17 13 -18 -12 -13 -24 4 -26 3 -18 -13 15 -27 12
-35 -6 -13 -8 10 -13 13 -9 7 3 -7 1 -13 -6 -13 -8 0 -7 -5 2 -17 13 -15 12
-15 -11 -3 -23 12 -24 12 -10 -4 13 -16 12 -18 -10 -14 -22 3 -25 -1 -24 -27
0 -26 -4 -30 -27 -30 -20 0 -26 4 -24 17 3 12 -1 15 -12 11 -11 -4 -14 -2 -9
5 7 11 -5 16 -30 13 -7 -1 -14 6 -18 14 -3 9 -2 13 4 10 6 -3 10 -1 10 4 0 6
-10 11 -22 12 -22 0 -22 1 -3 9 19 8 19 9 -3 9 -13 1 -20 5 -17 11 3 6 2 10
-4 10 -5 0 -12 -6 -14 -12 -3 -7 -4 3 -4 22 2 30 -1 34 -17 32 -16 -3 -18 -1
-9 10 9 10 4 21 -22 50 -18 20 -35 35 -37 35 -2 -1 0 2 4 7 4 5 3 15 -2 21 -7
8 -5 12 5 12 8 0 11 -5 8 -10 -3 -5 0 -7 8 -5 8 3 13 12 11 19 -2 8 5 6 19 -6
l22 -20 -19 30 c-13 21 -14 27 -3 18 12 -10 15 -7 17 17 1 16 -2 31 -8 35 -5
3 -10 12 -10 18 0 7 4 6 10 -3 8 -13 11 -13 22 -1 10 10 10 12 1 7 -7 -4 -13
-2 -13 3 0 6 7 11 15 11 8 0 14 3 14 8 -1 4 -1 10 0 13 1 8 33 5 49 -5z m257
-214 c-3 -3 -11 0 -18 7 -9 10 -8 11 6 5 10 -3 15 -9 12 -12z m-325 -62 c0 -5
-5 -10 -11 -10 -5 0 -7 5 -4 10 3 6 8 10 11 10 2 0 4 -4 4 -10z m-229 -33
c-10 -9 -11 -8 -5 6 3 10 9 15 12 12 3 -3 0 -11 -7 -18z m109 -151 c0 -2 -7
-7 -16 -10 -8 -3 -12 -2 -9 4 6 10 25 14 25 6z m35 -351 c6 -1 8 -7 6 -15 -4
-20 -9 -43 -11 -55 -1 -5 -10 8 -20 30 -19 40 -18 61 3 48 7 -4 17 -8 22 -8z
m480 -6 c-9 -13 9 -11 24 4 7 6 12 8 11 2 -5 -26 1 -46 12 -39 6 4 8 3 5 -2
-3 -6 -2 -16 4 -24 6 -12 9 -12 9 -2 0 11 2 11 13 0 20 -19 17 -116 -3 -113
-8 1 -19 -3 -23 -9 -5 -6 -6 0 -2 14 6 24 5 24 -9 6 -20 -25 -20 -14 0 27 l15
32 -20 -25 c-11 -14 -23 -21 -27 -17 -4 4 -2 7 4 7 6 0 9 9 7 20 -2 11 0 18 6
15 5 -4 9 -1 9 4 0 6 -7 11 -15 11 -17 0 -38 34 -27 45 4 4 -4 4 -18 1 -19 -6
-21 -5 -10 3 11 8 12 11 2 11 -7 0 -10 5 -6 11 4 8 9 8 17 0 6 -6 16 -11 22
-11 5 0 -3 9 -20 21 -26 18 -27 20 -6 14 17 -5 22 -4 16 5 -5 9 -4 11 4 6 6
-4 9 -12 6 -17z m-509 -67 c-3 -3 -6 -1 -6 5 0 6 -11 11 -25 11 -14 0 -25 -5
-25 -10 0 -5 4 -7 9 -4 4 3 16 -1 26 -8 17 -12 17 -13 1 -19 -9 -4 -15 -3 -12
1 3 5 -1 9 -9 9 -21 0 2 -27 24 -28 12 0 11 -2 -4 -9 -11 -5 -15 -9 -9 -9 6
-1 11 -8 11 -16 0 -12 -3 -12 -15 -2 -13 10 -14 9 -3 -10 10 -19 9 -22 -4 -17
-8 4 -15 11 -15 17 0 6 -3 7 -7 4 -3 -4 2 -17 13 -29 11 -13 13 -18 4 -12 -8
5 -19 9 -25 9 -5 0 -9 12 -7 28 2 15 -1 27 -7 27 -6 0 -8 -8 -5 -17 5 -15 4
-16 -5 -3 -8 11 -7 18 6 28 13 9 14 12 2 12 -12 0 -12 2 1 10 10 6 11 10 3 10
-7 0 -13 4 -13 10 0 5 8 6 18 3 15 -6 15 -5 3 11 -8 9 -10 16 -5 15 17 -4 44
13 37 24 -3 6 -1 7 5 3 7 -4 12 -1 12 6 1 7 8 0 16 -15 9 -16 13 -31 10 -35z
m249 -1 c-3 -6 -11 -8 -17 -5 -6 4 -5 9 3 15 16 10 23 4 14 -10z m43 -2 c3
-11 2 -11 -7 1 -11 16 -11 16 -15 -32 -1 -7 7 -12 17 -10 14 2 17 -2 13 -22
-3 -14 0 -28 5 -32 6 -3 8 -13 4 -22 -3 -9 -3 -13 1 -9 4 4 13 -1 21 -11 13
-15 13 -15 4 5 -14 27 -14 33 0 33 5 0 8 -4 4 -9 -3 -5 1 -16 10 -24 13 -13
13 -16 -2 -21 -9 -4 -13 -9 -10 -13 4 -3 1 -13 -5 -22 -7 -9 -9 -13 -4 -9 5 4
15 1 22 -7 19 -18 18 -26 -3 -19 -15 5 -15 4 -3 -4 10 -8 18 -7 28 1 11 9 13
7 10 -9 -2 -12 3 -19 14 -19 9 0 20 -4 25 -9 4 -5 4 -7 -2 -4 -5 3 -16 -1 -24
-9 -12 -13 -11 -14 5 -9 15 5 20 1 21 -17 0 -12 -1 -16 -4 -9 -3 6 -9 12 -14
12 -5 0 -4 -11 1 -25 8 -20 6 -27 -6 -32 -9 -3 -11 -9 -6 -12 5 -3 13 -17 17
-31 7 -23 7 -24 -10 -10 -17 13 -18 13 -10 0 6 -8 10 -19 10 -25 0 -5 10 -15
23 -21 19 -9 20 -13 8 -17 -9 -4 -16 -12 -15 -19 0 -10 2 -10 6 0 8 20 43 14
43 -8 0 -11 6 -20 13 -20 8 0 7 -3 -3 -9 -8 -6 -18 -7 -23 -4 -5 3 -4 -4 2
-15 6 -11 8 -29 5 -39 -6 -16 -5 -15 10 2 l16 20 -6 -20 c-4 -11 -14 -26 -23
-34 -14 -11 -13 -12 9 -7 14 3 19 3 12 0 -10 -5 -10 -9 0 -22 7 -9 8 -13 2 -9
-7 4 -17 0 -24 -8 -7 -8 -16 -12 -21 -9 -9 5 -12 -7 -10 -36 0 -10 -1 -11 -5
-2 -10 22 -19 13 -18 -18 2 -46 3 -52 12 -47 4 3 7 -8 7 -23 1 -16 -3 -26 -7
-24 -5 3 -6 9 -3 14 3 4 -2 13 -10 20 -10 9 -15 9 -15 1 0 -6 4 -11 8 -11 12
0 13 -42 1 -56 -7 -8 -6 -14 1 -19 6 -4 9 -1 8 6 -2 6 2 13 7 15 6 2 11 -4 11
-15 0 -11 -3 -18 -6 -16 -3 2 -16 -3 -30 -12 -17 -10 -19 -12 -5 -8 13 4 16 3
10 -3 -5 -6 -19 -12 -30 -14 -12 -2 -20 -11 -20 -23 1 -11 -4 -24 -10 -28 -6
-5 -4 -7 5 -4 8 2 14 10 12 16 -1 7 2 10 6 7 12 -7 2 -57 -12 -62 -6 -2 -24
-6 -41 -8 -16 -3 -31 -10 -33 -16 -2 -5 -8 -10 -13 -10 -4 0 -6 7 -2 16 5 14
3 14 -16 2 -18 -11 -23 -11 -30 1 -6 9 -18 12 -32 8 -23 -6 -23 -5 -5 8 19 15
19 15 -5 16 -19 1 -20 2 -5 6 13 4 15 7 7 13 -7 4 -13 13 -14 21 -2 8 -6 19
-10 26 -5 7 0 10 15 6 22 -4 21 -4 -2 9 -14 8 -24 20 -22 27 1 7 -2 10 -7 6
-6 -3 -7 -13 -4 -22 4 -11 3 -14 -5 -9 -7 4 -12 13 -12 21 0 7 -7 21 -16 29
-8 9 -11 16 -5 16 5 0 14 -7 19 -16 6 -12 9 -8 9 16 0 17 -3 26 -7 20 -5 -7
-9 -4 -13 9 -3 12 0 24 5 28 7 3 8 1 4 -5 -5 -8 -1 -10 9 -5 11 4 13 8 6 13
-7 4 -10 28 -8 58 2 44 0 49 -12 39 -12 -9 -13 -9 -7 1 4 6 3 12 -3 12 -5 0
-13 9 -16 20 -3 11 -11 20 -18 20 -8 0 -8 -3 1 -12 7 -7 12 -17 12 -22 0 -6
-5 -3 -11 7 -6 10 -15 14 -22 10 -7 -4 -6 1 2 11 20 25 21 58 3 79 -15 16 -14
17 4 11 15 -5 14 -2 -6 15 -14 12 -18 19 -9 16 13 -5 17 0 17 19 0 14 -5 26
-11 26 -6 0 -8 2 -5 5 3 3 13 3 22 -1 14 -5 14 -9 4 -22 -10 -12 -10 -14 0 -8
19 11 44 65 36 78 -4 7 -3 8 4 4 7 -4 12 0 13 11 0 10 2 31 4 48 3 18 1 25 -4
17 -6 -10 -10 -8 -14 7 -3 12 0 24 5 28 7 3 8 1 4 -5 -5 -8 -1 -10 9 -5 13 5
14 7 3 14 -7 5 -10 9 -7 9 4 0 3 15 -1 34 -7 31 -5 34 12 31 13 -3 18 0 15 9
-4 9 2 12 17 11 27 -3 31 23 7 43 -15 12 -15 13 0 9 9 -3 16 1 16 9 0 7 -3 11
-7 9 -4 -2 -7 2 -7 10 0 8 4 12 9 9 4 -3 8 3 8 13 0 10 3 14 8 8 9 -13 27 -13
39 -1 4 5 3 6 -3 3 -7 -4 -14 0 -17 7 -4 10 0 14 13 11 14 -3 17 1 13 12 -5
12 -3 14 8 8 9 -5 8 -1 -3 11 -15 18 -12 47 6 45 20 -3 26 1 26 15 0 19 22 14
28 -7z m-556 -6 c-6 -2 -9 -10 -6 -15 4 -7 2 -8 -5 -4 -13 9 -5 26 12 25 9 0
8 -2 -1 -6z m558 -17 c0 -3 -4 -8 -10 -11 -5 -3 -10 -1 -10 4 0 6 5 11 10 11
6 0 10 -2 10 -4z m-400 -165 c8 12 11 12 22 0 10 -10 10 -12 1 -7 -8 4 -13 1
-13 -8 0 -10 6 -13 18 -10 10 4 13 3 6 -3 -6 -4 -10 -20 -9 -35 1 -15 -2 -33
-8 -40 -6 -9 -7 -8 -3 5 3 9 1 17 -4 17 -6 0 -10 -8 -10 -17 0 -15 -2 -14 -16
3 -8 10 -13 14 -10 7 4 -6 3 -14 -2 -17 -4 -2 -9 7 -10 22 -1 14 -8 29 -15 34
-8 5 -6 8 7 8 19 0 19 0 1 13 -13 10 -15 16 -6 21 6 4 8 12 5 18 -4 7 -2 8 5
4 9 -6 9 -11 0 -22 -8 -10 -8 -14 0 -14 6 0 14 12 18 28 7 27 8 27 11 3 3 -18
6 -21 12 -10z m466 3 c1 -9 0 -13 -4 -10 -3 4 -7 14 -8 22 -1 9 0 13 4 10 3
-4 7 -14 8 -22z m269 16 c-3 -5 -1 -10 5 -10 6 0 8 -4 5 -10 -4 -6 1 -7 11 -3
13 5 15 3 8 -8 -8 -13 -14 -44 -15 -80 -1 -19 -26 -21 -33 -2 -3 8 -10 11 -16
8 -5 -3 -10 -1 -10 4 0 14 13 14 26 1 7 -7 11 -6 11 4 0 8 -4 13 -9 10 -4 -3
-8 0 -8 6 0 6 -4 9 -9 6 -5 -4 -8 2 -6 11 1 10 -3 25 -9 33 -10 13 -9 13 8 0
18 -14 19 -13 14 8 -4 12 -2 20 2 17 5 -3 11 -1 15 5 3 5 8 10 11 10 3 0 2 -4
-1 -10z m35 6 c0 -3 -4 -8 -10 -11 -5 -3 -10 -1 -10 4 0 6 5 11 10 11 6 0 10
-2 10 -4z m5 -55 c3 -5 2 -12 -3 -15 -5 -3 -9 1 -9 9 0 17 3 19 12 6z m-255
-15 c0 -2 -7 -7 -16 -10 -8 -3 -12 -2 -9 4 6 10 25 14 25 6z m260 -20 c0 -2
-8 -10 -17 -17 -16 -13 -17 -12 -4 4 13 16 21 21 21 13z m-250 -116 c0 -5 -2
-10 -4 -10 -3 0 -8 5 -11 10 -3 6 -1 10 4 10 6 0 11 -4 11 -10z m-325 -9 c3
-5 0 -13 -6 -17 -7 -4 -9 -3 -5 4 3 5 0 13 -6 15 -9 4 -10 6 -1 6 6 1 14 -3
18 -8z m621 -64 c13 -24 13 -31 3 -38 -7 -4 -16 -6 -20 -3 -4 2 -11 -1 -15 -7
-4 -8 -3 -9 4 -5 13 8 35 -29 37 -64 1 -14 7 -24 13 -23 7 2 9 -4 5 -14 -4
-11 -3 -14 5 -9 11 7 15 -7 15 -56 0 -10 4 -18 9 -18 6 0 7 8 3 18 -4 12 -3
14 5 6 14 -14 2 -46 -14 -37 -6 4 -5 -1 3 -10 7 -9 19 -17 25 -17 6 0 4 5 -4
10 -8 5 -10 10 -4 10 6 0 21 -12 35 -27 13 -14 18 -23 12 -19 -7 4 -13 3 -13
-3 0 -5 4 -11 9 -13 5 -1 11 -10 13 -18 2 -8 8 -18 13 -22 6 -5 5 -8 -3 -8 -9
0 -10 -5 -3 -19 8 -14 7 -22 -6 -32 -14 -12 -16 -12 -8 0 6 10 4 12 -4 6 -9
-5 -10 -10 -2 -18 15 -15 14 -27 -4 -27 -8 0 -15 -5 -15 -11 0 -5 -5 -7 -10
-4 -6 4 -7 11 -4 17 4 7 2 8 -5 4 -6 -4 -9 -11 -6 -16 3 -5 1 -12 -5 -15 -6
-4 -9 -3 -8 2 3 9 -5 13 -24 13 -9 0 -8 -4 2 -10 9 -6 10 -10 3 -10 -7 0 -16
7 -21 16 -8 15 -10 15 -15 0 -4 -10 -3 -15 3 -11 6 3 10 2 10 -3 0 -5 -10 -12
-22 -15 -19 -5 -20 -8 -7 -23 8 -10 9 -15 2 -11 -6 4 -14 1 -16 -5 -4 -8 -6
-7 -6 4 -1 18 -34 19 -60 3 -10 -6 -12 -4 -7 4 6 8 2 11 -10 9 -14 -2 -18 4
-20 30 0 17 3 32 7 32 5 0 9 -4 9 -10 0 -5 6 -10 13 -10 6 1 1 10 -12 20 -19
17 -20 20 -6 20 15 0 16 2 4 17 -13 15 -12 15 11 3 22 -12 24 -12 12 3 -11 13
-10 15 7 10 17 -4 21 -1 21 16 0 12 4 20 9 16 5 -3 13 -1 16 5 4 6 3 10 -2 9
-30 -5 -37 17 -19 68 4 13 4 28 -1 35 -18 30 -3 85 20 71 6 -3 7 -1 3 6 -4 6
-12 8 -18 5 -6 -4 -8 1 -3 16 4 13 3 20 -2 17 -5 -4 -10 1 -10 9 0 9 6 13 15
9 13 -5 13 -3 1 11 -17 21 -20 44 -5 38 7 -3 12 5 13 18 1 13 -1 18 -5 13 -4
-6 -14 -11 -22 -13 -11 -3 -10 2 4 17 11 12 14 21 8 21 -7 0 -12 5 -12 10 0 7
6 7 18 1 14 -7 19 -6 19 4 0 8 -4 12 -8 9 -4 -2 -11 0 -14 6 -4 6 -1 9 7 8 7
-2 12 2 11 9 -5 23 28 1 43 -30z m-871 8 c12 -13 16 -57 4 -49 -5 3 -6 10 -3
16 4 7 2 8 -4 4 -13 -8 -5 -36 10 -36 5 0 6 -5 3 -10 -4 -6 -11 -7 -17 -4 -7
5 -8 2 -2 -7 4 -8 10 -22 11 -33 3 -15 0 -16 -10 -8 -10 9 -14 8 -14 -3 0 -7
3 -14 6 -13 22 2 27 -7 27 -42 0 -29 -4 -39 -13 -35 -10 3 -11 0 -3 -15 9 -16
8 -19 -7 -14 -17 5 -16 5 0 -6 18 -11 18 -12 0 -33 -10 -11 -13 -17 -6 -14 6
4 14 3 18 -3 4 -6 11 -7 17 -4 7 4 8 2 4 -5 -4 -6 -12 -8 -18 -5 -7 5 -9 -1
-5 -15 4 -17 2 -21 -9 -17 -9 3 -12 1 -9 -4 3 -6 13 -10 22 -10 11 0 9 -5 -7
-18 -18 -14 -19 -19 -7 -19 9 0 14 4 11 9 -3 4 0 8 7 8 6 0 9 -8 6 -20 -3 -11
-1 -18 3 -15 11 7 40 -5 40 -17 0 -5 -5 -6 -12 -2 -7 4 -8 3 -4 -4 4 -6 12 -9
19 -6 9 3 13 -7 13 -31 0 -21 -5 -35 -13 -35 -7 0 -10 -6 -7 -13 3 -8 -4 -13
-18 -14 -18 -2 -19 0 -8 7 11 7 10 9 -8 7 -16 -1 -21 -6 -17 -16 4 -10 -3 -7
-18 7 -18 17 -26 19 -36 9 -10 -10 -12 -9 -9 3 2 8 10 18 18 23 10 5 6 6 -11
4 -23 -3 -54 15 -43 26 3 2 -5 4 -16 3 -11 0 -25 -8 -30 -16 -7 -10 -10 -11
-10 -2 0 6 -5 11 -11 10 -12 -3 -18 17 -21 75 -2 20 -7 37 -13 37 -5 0 -4 4 4
9 12 8 13 15 3 38 l-13 28 20 -25 20 -25 -5 30 c-5 28 -4 29 9 10 14 -19 15
-18 13 5 0 13 5 25 14 27 12 4 12 3 2 -5 -11 -8 -11 -10 1 -15 10 -4 14 0 12
11 -1 9 2 26 8 37 10 19 9 19 -9 5 -18 -15 -18 -14 0 14 10 16 14 26 8 22 -5
-3 -12 0 -15 7 -4 10 2 13 19 9 14 -2 24 0 24 7 0 7 -5 9 -12 5 -7 -4 -8 -3
-4 5 6 9 11 9 22 0 12 -10 13 -9 7 7 -6 16 -4 17 8 7 13 -10 15 -8 15 15 0 15
-4 30 -10 34 -16 11 -16 40 0 34 10 -4 12 -2 8 6 -5 8 -2 9 9 5 24 -9 21 0 -4
14 -17 9 -20 8 -14 -3 5 -7 4 -10 0 -5 -5 4 -9 16 -10 27 -1 16 2 17 17 9 17
-9 18 -8 9 10 -10 17 -8 20 11 18 13 -1 28 -6 33 -12z m635 -115 c0 -5 -4 -10
-10 -10 -5 0 -10 5 -10 10 0 6 5 10 10 10 6 0 10 -4 10 -10z m-693 -14 c0 -8
-6 -12 -15 -9 -11 5 -11 7 0 14 7 5 13 9 14 9 0 0 1 -6 1 -14z m244 -39 c-10
-9 -11 -8 -5 6 3 10 9 15 12 12 3 -3 0 -11 -7 -18z m754 -27 c3 -5 1 -10 -4
-10 -6 0 -11 5 -11 10 0 6 2 10 4 10 3 0 8 -4 11 -10z m-1292 -55 c4 -8 1 -17
-5 -21 -7 -4 -8 -3 -4 4 4 7 2 12 -4 12 -6 0 -8 5 -5 10 8 14 12 13 18 -5z
m-473 -50 c0 -2 -9 -3 -19 -2 -11 0 -18 5 -15 9 4 6 34 0 34 -7z m64 7 c3 -5
-1 -9 -9 -9 -8 0 -12 4 -9 9 3 4 7 8 9 8 2 0 6 -4 9 -8z m1009 -17 c-7 -21
-12 -19 -10 4 0 11 5 18 9 15 4 -3 5 -11 1 -19z m1391 17 c3 -5 -1 -9 -9 -9
-8 0 -12 4 -9 9 3 4 7 8 9 8 2 0 6 -4 9 -8z m-409 -12 c-3 -5 -12 -10 -18 -10
-7 0 -6 4 3 10 19 12 23 12 15 0z m-655 -4 c0 -3 -4 -8 -10 -11 -5 -3 -10 -1
-10 4 0 6 5 11 10 11 6 0 10 -2 10 -4z m804 -4 c3 -5 -1 -9 -9 -9 -8 0 -12 4
-9 9 3 4 7 8 9 8 2 0 6 -4 9 -8z m-109 -32 c3 -6 -1 -7 -9 -4 -18 7 -21 14 -7
14 6 0 13 -4 16 -10z m651 -75 c-1 -8 -5 -17 -8 -21 -5 -4 -4 16 1 34 3 9 9
-1 7 -13z m-3029 -47 c2 -17 0 -19 -7 -8 -5 8 -6 18 -4 22 8 12 10 10 11 -14z
m3053 -8 c6 -11 9 -20 8 -20 -2 0 -11 9 -21 20 -9 11 -13 20 -7 20 5 0 14 -9
20 -20z m-423 -59 c12 11 14 10 11 -6 -1 -10 4 -20 12 -22 13 -4 13 -3 0 7
-12 9 -10 10 10 8 14 -2 28 -7 31 -11 3 -5 9 -1 12 8 5 11 3 14 -6 9 -6 -4 -9
-3 -4 1 4 5 16 9 27 10 15 1 17 -2 9 -11 -7 -8 -6 -14 2 -20 8 -5 9 -3 4 6 -6
10 -4 12 8 7 9 -3 19 -1 23 5 5 7 2 8 -7 3 -8 -5 -10 -4 -6 0 13 15 39 15 33
0 -3 -8 0 -17 6 -21 6 -4 8 -3 5 2 -3 6 4 16 16 23 12 8 19 10 15 6 -4 -5 0
-14 10 -22 9 -8 12 -12 5 -9 -6 4 -14 2 -18 -4 -3 -5 -1 -10 4 -10 6 0 11 -8
10 -17 0 -11 -3 -13 -6 -5 -7 19 -23 14 -17 -5 5 -15 3 -15 -11 2 -17 20 -17
20 -10 -4 5 -16 4 -21 -4 -17 -7 4 -11 -1 -11 -13 0 -12 -4 -21 -10 -21 -5 0
-7 8 -4 18 5 14 4 14 -4 2 -8 -10 -7 -19 1 -29 10 -12 9 -13 -1 -7 -7 4 -19 2
-27 -4 -11 -9 -15 -9 -15 -1 0 6 5 11 10 11 6 0 10 4 10 8 0 4 -9 8 -19 8 -11
0 -17 -4 -15 -8 3 -4 -1 -8 -10 -8 -8 0 -16 3 -19 8 -2 4 -2 1 -1 -6 2 -7 -2
-21 -8 -32 -9 -15 -16 -16 -31 -8 -11 5 -17 6 -14 1 3 -5 2 -15 -2 -22 -6 -10
-12 -9 -25 4 -15 15 -16 15 -17 -7 l0 -23 -9 23 c-5 12 -12 22 -14 22 -3 0 -3
-6 0 -14 3 -8 0 -17 -7 -22 -8 -4 -10 -3 -5 4 4 7 2 12 -4 12 -6 0 -8 5 -4 12
4 7 3 8 -4 4 -7 -4 -12 -15 -12 -24 0 -14 -2 -15 -9 -2 -6 8 -7 19 -4 25 4 5
-3 2 -14 -8 -11 -9 -22 -14 -26 -11 -3 3 -4 -2 -3 -11 1 -9 8 -20 15 -24 10
-6 9 -10 -4 -14 -9 -4 -13 -3 -10 3 3 6 1 10 -4 10 -6 0 -11 -4 -11 -10 0 -5
-5 -10 -11 -10 -5 0 -7 5 -3 12 5 7 3 8 -5 4 -7 -5 -10 -14 -7 -22 3 -8 3 -14
0 -14 -2 0 -9 10 -14 23 l-9 22 0 -23 c-1 -22 -2 -22 -18 -6 -16 15 -17 15
-24 -2 -6 -14 -8 -15 -9 -4 -2 8 -2 19 -1 23 1 4 -7 3 -17 -2 -13 -7 -23 -6
-32 2 -10 9 -11 9 -6 0 3 -6 2 -14 -4 -18 -5 -3 -11 2 -11 12 -1 16 -2 16 -6
-1 -4 -15 -7 -16 -14 -5 -7 11 -9 11 -9 1 0 -9 -5 -10 -19 -3 -14 8 -20 7 -25
-5 -5 -13 -9 -13 -28 -1 -13 8 -30 13 -38 12 -8 0 -19 4 -23 10 -5 6 -7 4 -4
-5 2 -8 10 -14 16 -12 7 1 10 -2 6 -8 -5 -8 -11 -7 -21 1 -8 6 -14 9 -14 6 0
-3 -13 -2 -29 3 -19 5 -38 4 -54 -5 -18 -9 -28 -10 -36 -2 -6 6 -11 7 -11 3 0
-5 -7 -3 -15 4 -13 11 -15 10 -9 -6 5 -18 5 -18 -6 -1 -8 13 -9 22 -2 29 7 7
7 19 1 36 -9 22 -8 24 7 12 19 -16 54 -21 54 -7 0 5 9 7 21 4 12 -3 18 -3 15
0 -3 3 -1 15 5 26 9 15 8 18 -3 12 -7 -5 -4 1 7 12 11 11 23 16 26 10 4 -5 9
-5 13 2 11 17 26 3 20 -17 -5 -14 -4 -15 5 -2 6 8 11 11 11 6 0 -5 8 -2 18 7
10 10 21 14 24 11 3 -3 9 0 14 7 4 7 3 10 -3 6 -6 -4 -13 -1 -16 7 -4 11 1 13
21 10 21 -3 23 -2 12 6 -14 9 -12 12 6 9 4 0 11 5 16 13 6 9 7 5 3 -12 -3 -14
-3 -20 2 -14 4 6 20 10 35 10 19 -1 24 2 18 10 -7 7 -5 11 5 11 8 0 12 -3 10
-7 -2 -3 0 -12 6 -20 7 -12 9 -12 9 3 0 10 5 15 10 12 6 -4 18 -1 27 7 14 10
15 10 9 0 -5 -9 -3 -13 5 -11 28 3 38 -1 44 -21 3 -11 14 -20 23 -20 15 0 15
-2 2 -11 -12 -8 -10 -9 7 -4 19 5 22 3 16 -12 -4 -11 3 -7 16 9 12 15 21 35
19 45 -2 12 3 18 15 17 9 -1 17 2 17 7 0 5 5 9 11 9 5 0 7 -6 3 -12 -4 -7 -3
-10 1 -5 5 4 10 16 12 27 2 15 -1 18 -15 13 -9 -3 -15 -4 -12 -2 40 34 52 42
45 30 -6 -11 -4 -13 8 -8 9 3 19 1 23 -5 5 -7 2 -8 -6 -3 -9 5 -11 4 -6 -4 12
-18 27 -2 21 22 -5 20 -5 20 5 4 10 -15 14 -16 27 -6z m-2410 -10 c-3 9 1 16
9 16 10 0 12 -7 8 -21 -4 -16 -3 -17 4 -7 6 8 17 11 26 8 8 -3 18 -1 22 5 5 7
2 8 -7 3 -8 -5 -11 -4 -6 1 4 4 21 9 37 9 23 1 27 -2 18 -12 -8 -11 -7 -12 7
-7 14 6 16 4 10 -7 -6 -11 -5 -12 5 -2 9 8 18 9 25 3 8 -7 12 -5 12 5 0 8 -5
11 -11 8 -6 -3 -8 -3 -4 2 4 4 21 9 38 10 23 2 35 -3 46 -20 9 -14 23 -22 33
-20 10 2 18 -3 18 -10 0 -7 -7 -11 -16 -8 -13 4 -13 3 1 -6 9 -6 28 -12 41
-13 14 -1 24 -5 21 -9 -2 -4 3 -15 12 -24 9 -9 14 -18 11 -21 -3 -3 -13 6 -22
20 -10 14 -22 26 -29 26 -6 0 -4 -5 4 -10 8 -5 11 -10 6 -10 -4 0 2 -8 15 -19
29 -23 52 -17 44 13 -5 15 -4 17 3 7 12 -16 27 3 16 21 -4 7 -3 8 5 4 6 -4 14
-1 17 7 2 7 11 14 19 14 8 0 12 -4 9 -9 -5 -7 3 -10 22 -7 4 0 11 -5 15 -13 5
-7 9 -8 9 -3 0 6 9 11 20 12 13 1 18 -2 14 -9 -5 -7 -2 -8 5 -4 7 5 10 15 6
24 -5 14 -4 14 13 -1 17 -15 20 -15 42 0 15 11 20 12 15 3 -6 -10 -4 -12 8 -7
11 4 14 2 10 -9 -3 -9 0 -14 7 -12 7 2 15 -4 17 -12 4 -13 3 -13 -6 0 -13 18
-14 1 -2 -19 11 -17 41 -24 41 -9 0 6 -7 8 -14 5 -10 -4 -13 -1 -9 9 5 13 8
13 24 -2 10 -9 16 -21 12 -27 -3 -6 -1 -7 6 -3 6 4 9 12 6 17 -10 15 12 10 30
-7 8 -9 23 -13 32 -10 13 5 14 4 4 -8 -9 -11 -8 -15 4 -20 10 -3 13 -11 9 -18
-6 -10 -4 -10 7 -2 16 12 75 11 87 -1 4 -5 1 -5 -5 -1 -7 4 -13 2 -13 -3 0 -6
8 -11 17 -11 15 0 14 -2 -3 -16 -16 -13 -16 -15 -2 -10 10 3 19 2 22 -2 3 -4
-9 -9 -27 -10 -17 -2 -36 -7 -42 -12 -7 -5 -15 -7 -19 -3 -11 11 -36 12 -36 1
0 -5 -7 -3 -15 5 -8 9 -23 14 -32 13 -10 -2 -22 2 -26 8 -6 7 -7 6 -4 -4 2 -8
10 -14 16 -12 7 1 9 -3 6 -9 -5 -7 -11 -7 -17 -1 -6 6 -18 8 -27 5 -14 -4 -14
-3 -1 7 13 10 13 11 -1 7 -9 -3 -22 0 -29 6 -10 9 -11 9 -6 0 3 -6 2 -14 -4
-18 -5 -3 -11 2 -11 12 -1 16 -2 16 -6 -1 -4 -15 -7 -16 -14 -5 -7 11 -9 11
-9 1 0 -9 -5 -10 -19 -3 -15 8 -20 7 -25 -5 -5 -14 -9 -14 -22 -3 -13 10 -17
10 -25 -2 -5 -9 -9 -10 -9 -2 0 7 8 17 18 22 9 6 12 11 6 11 -5 0 -16 -6 -22
-12 -10 -10 -17 -10 -32 0 -14 8 -21 9 -26 0 -5 -7 -3 -8 6 -3 9 5 11 4 6 -3
-11 -18 -26 -14 -27 6 -1 11 -4 9 -9 -8 -7 -21 -8 -22 -9 -5 -2 19 -2 19 -12
2 -11 -18 -29 -14 -29 6 0 7 4 6 10 -3 8 -13 10 -12 10 4 0 12 -5 16 -16 12
-9 -3 -20 -6 -25 -6 -6 0 -7 -5 -3 -12 4 -7 3 -8 -5 -4 -9 6 -9 11 0 22 9 11
9 14 0 14 -7 0 -10 4 -7 8 2 4 -4 13 -14 20 -17 10 -18 9 -13 -6 6 -15 5 -15
-11 -3 -9 8 -15 20 -12 28 4 8 1 11 -5 8 -6 -4 -8 -13 -5 -20 3 -8 -2 -11 -15
-8 -10 3 -16 10 -12 16 3 6 1 7 -6 3 -6 -4 -9 -11 -6 -16 3 -5 0 -12 -6 -16
-7 -4 -9 -3 -6 2 3 6 2 16 -4 24 -7 13 -9 12 -9 -2 0 -11 -5 -15 -15 -12 -8 4
-12 11 -8 18 4 7 1 6 -9 -2 -13 -10 -15 -9 -13 13 2 14 -2 23 -8 22 -7 -1 -11
5 -9 13 2 8 0 12 -4 8 -4 -4 -13 -3 -20 3 -8 7 -14 6 -20 -2 -4 -8 -3 -9 4 -5
17 10 15 1 -4 -14 -8 -8 -14 -9 -13 -4 4 23 -3 32 -27 32 -19 0 -23 -3 -13
-10 11 -8 11 -9 -1 -5 -8 2 -17 12 -18 22 -3 12 0 15 9 10 7 -5 10 -4 5 3 -4
6 -13 9 -20 6 -8 -3 -17 0 -22 7 -5 8 -3 10 7 4 11 -7 12 -6 2 7 -7 8 -9 19
-5 23 4 5 1 5 -6 1 -7 -4 -10 -11 -8 -15 3 -4 0 -13 -5 -21 -9 -13 -10 -13 -8
0 3 30 -1 41 -13 34 -7 -4 -8 -3 -4 5 4 6 11 9 16 6 5 -3 7 7 4 22 -5 27 -5
27 11 8 12 -14 15 -15 12 -4z m858 9 c3 -5 1 -10 -4 -10 -6 0 -11 5 -11 10 0
6 2 10 4 10 3 0 8 -4 11 -10z m-585 -14 c0 -3 -4 -8 -10 -11 -5 -3 -10 -1 -10
4 0 6 5 11 10 11 6 0 10 -2 10 -4z m-529 -53 c13 -16 12 -17 -3 -4 -17 13 -22
21 -14 21 2 0 10 -8 17 -17z m1624 -2 c2 -5 -7 -7 -20 -5 -14 1 -25 -3 -25 -9
0 -5 -3 -8 -6 -4 -3 3 -4 9 -1 14 7 11 45 14 52 4z m879 -42 c-3 -5 -10 -7
-15 -3 -5 3 -7 10 -3 15 3 5 10 7 15 3 5 -3 7 -10 3 -15z m570 2 c3 -4 -4 -17
-17 -27 -22 -19 -22 -19 -4 2 9 11 14 24 10 27 -3 4 -4 7 0 7 3 0 8 -4 11 -9z
m-2679 -41 c16 -17 16 -20 3 -15 -9 4 -19 13 -22 21 -7 19 -2 18 19 -6z m1570
-50 c-3 -5 -1 -10 5 -10 6 0 8 -4 5 -10 -10 -16 -23 -11 -20 8 5 23 4 22 11
22 3 0 2 -4 -1 -10z m575 6 c0 -2 -8 -10 -17 -17 -16 -13 -17 -12 -4 4 13 16
21 21 21 13z m-2185 -146 c3 -5 1 -10 -4 -10 -6 0 -11 5 -11 10 0 6 2 10 4 10
3 0 8 -4 11 -10z"/>
<path d="M1680 2620 c-9 -6 -10 -10 -3 -10 6 0 15 5 18 10 8 12 4 12 -15 0z"/>
<path d="M1386 2462 c-5 -9 27 -43 54 -56 9 -5 9 -2 -2 7 -10 8 -15 16 -13 19
3 3 -3 13 -14 22 -10 10 -22 13 -25 8z m25 -19 c13 -16 12 -17 -3 -4 -10 7
-18 15 -18 17 0 8 8 3 21 -13z"/>
<path d="M1330 1815 c8 -11 15 -21 16 -23 1 -2 5 5 8 15 4 9 4 14 0 10 -4 -4
-14 -1 -23 6 -14 11 -15 10 -1 -8z"/>
<path d="M1844 1785 c-11 -23 -2 -56 12 -42 4 4 14 1 23 -6 14 -11 15 -10 1 7
-8 11 -14 21 -13 22 1 2 -1 13 -5 23 -7 19 -8 19 -18 -4z m20 -26 c-3 -5 -10
-7 -15 -3 -5 3 -7 10 -3 15 3 5 10 7 15 3 5 -3 7 -10 3 -15z"/>
<path d="M1900 1740 c0 -5 5 -10 11 -10 5 0 7 5 4 10 -3 6 -8 10 -11 10 -2 0
-4 -4 -4 -10z"/>
<path d="M1905 1669 c-4 -6 -5 -12 -2 -15 2 -3 7 2 10 11 7 17 1 20 -8 4z"/>
<path d="M1600 1690 c-13 -8 -11 -13 9 -32 14 -13 20 -16 14 -8 -6 8 -9 23 -8
33 4 20 4 19 -15 7z"/>
<path d="M1425 1301 c-3 -5 -1 -12 5 -16 6 -4 7 -11 4 -17 -4 -7 -2 -8 5 -4 8
6 9 12 2 20 -6 7 -8 16 -4 19 3 4 4 7 0 7 -3 0 -8 -4 -12 -9z"/>
<path d="M1766 1101 c-12 -5 -15 -10 -9 -14 6 -4 16 0 23 8 14 17 13 17 -14 6z"/>
<path d="M1725 1081 c-3 -5 -2 -12 3 -15 5 -3 9 1 9 9 0 17 -3 19 -12 6z"/>
<path d="M1485 801 c-3 -5 -2 -12 3 -15 5 -3 9 1 9 9 0 17 -3 19 -12 6z"/>
<path d="M2010 1326 c0 -2 7 -9 15 -16 13 -11 14 -10 9 4 -5 14 -24 23 -24 12z"/>
<path d="M2040 1160 c0 -5 5 -10 11 -10 5 0 7 5 4 10 -3 6 -8 10 -11 10 -2 0
-4 -4 -4 -10z"/>
<path d="M1984 1085 c0 -13 4 -21 8 -19 5 3 6 9 3 14 -3 4 0 10 7 12 8 3 7 6
-3 10 -11 4 -15 -1 -15 -17z"/>
<path d="M2130 1020 c0 -5 5 -10 11 -10 5 0 7 5 4 10 -3 6 -8 10 -11 10 -2 0
-4 -4 -4 -10z"/>
<path d="M1985 1000 c-3 -5 -1 -10 4 -10 6 0 11 5 11 10 0 6 -2 10 -4 10 -3 0
-8 -4 -11 -10z"/>
<path d="M2159 968 c-8 -20 -3 -58 8 -62 10 -4 11 -1 5 12 -5 9 -8 25 -7 35 3
14 -2 25 -6 15z"/>
<path d="M1923 805 c0 -8 4 -12 9 -9 5 3 6 10 3 15 -9 13 -12 11 -12 -6z"/>
<path d="M1150 1310 c0 -5 5 -10 11 -10 5 0 7 5 4 10 -3 6 -8 10 -11 10 -2 0
-4 -4 -4 -10z"/>
<path d="M1164 1151 c4 -6 3 -18 -3 -25 -8 -9 -7 -13 2 -13 16 0 20 34 5 43
-7 4 -8 2 -4 -5z"/>
<path d="M1006 852 c-3 -5 1 -9 9 -9 8 0 12 4 9 9 -3 4 -7 8 -9 8 -2 0 -6 -4
-9 -8z"/>
<path d="M1090 840 c0 -5 5 -10 11 -10 5 0 7 5 4 10 -3 6 -8 10 -11 10 -2 0
-4 -4 -4 -10z"/>
<path d="M1229 848 c-5 -18 -6 -38 -1 -34 7 8 12 36 6 36 -2 0 -4 -1 -5 -2z"/>
<path d="M2555 700 c3 -5 8 -10 11 -10 2 0 4 5 4 10 0 6 -5 10 -11 10 -5 0 -7
-4 -4 -10z"/>
<path d="M2155 650 c-4 -6 -11 -8 -16 -5 -5 4 -9 1 -9 -4 0 -16 16 -13 30 4 7
8 10 15 7 15 -3 0 -9 -5 -12 -10z"/>
<path d="M2724 642 c3 -5 0 -13 -6 -15 -9 -4 -10 -6 -1 -6 17 -1 25 16 12 25
-7 4 -9 3 -5 -4z"/>
<path d="M2056 558 c3 -5 10 -6 15 -3 13 9 11 12 -6 12 -8 0 -12 -4 -9 -9z"/>
<path d="M2034 538 c-4 -7 -4 -10 1 -6 4 4 15 2 24 -5 14 -11 14 -10 2 6 -16
20 -18 21 -27 5z"/>
<path d="M366 763 c-6 -14 -5 -15 5 -6 7 7 10 15 7 18 -3 3 -9 -2 -12 -12z"/>
<path d="M481 771 c-10 -7 -7 -9 12 -8 14 1 23 5 20 10 -6 9 -15 9 -32 -2z"/>
<path d="M1090 582 c0 -5 7 -9 15 -9 8 0 12 4 9 9 -3 4 -9 8 -15 8 -5 0 -9 -4
-9 -8z"/>
<path d="M1070 538 c0 -6 3 -8 7 -5 3 4 13 1 22 -6 14 -11 14 -10 2 6 -15 20
-31 22 -31 5z"/>
<path d="M1776 2832 c-3 -5 1 -9 9 -9 8 0 12 4 9 9 -3 4 -7 8 -9 8 -2 0 -6 -4
-9 -8z"/>
<path d="M1857 2779 c7 -7 15 -10 18 -7 3 3 -2 9 -12 12 -14 6 -15 5 -6 -5z"/>
<path d="M1276 2767 c3 -10 9 -15 12 -12 3 3 0 11 -7 18 -10 9 -11 8 -5 -6z"/>
<path d="M1874 2734 c2 -16 36 -54 48 -54 4 0 8 5 8 12 0 6 -3 9 -6 5 -10 -10
-37 22 -31 37 3 7 -1 13 -8 13 -7 0 -12 -6 -11 -13z"/>
<path d="M1930 2661 c0 -5 5 -13 10 -16 6 -3 10 -2 10 4 0 5 -4 13 -10 16 -5
3 -10 2 -10 -4z"/>
<path d="M1980 2560 c0 -5 5 -10 11 -10 5 0 7 5 4 10 -3 6 -8 10 -11 10 -2 0
-4 -4 -4 -10z"/>
<path d="M1986 2382 c-2 -4 -1 -14 4 -22 7 -11 9 -9 7 8 -1 24 -3 26 -11 14z"/>
<path d="M1910 2286 c0 -2 7 -7 16 -10 8 -3 12 -2 9 4 -6 10 -25 14 -25 6z"/>
<path d="M1270 2239 c0 -5 5 -7 10 -4 6 3 10 8 10 11 0 2 -4 4 -10 4 -5 0 -10
-5 -10 -11z"/>
<path d="M1835 2120 c3 -5 8 -10 11 -10 2 0 4 5 4 10 0 6 -5 10 -11 10 -5 0
-7 -4 -4 -10z"/>
<path d="M1122 1954 c-7 -8 -8 -14 -3 -14 10 0 25 19 20 25 -2 1 -10 -3 -17
-11z"/>
<path d="M1010 1726 c0 -2 8 -10 18 -17 15 -13 16 -12 3 4 -13 16 -21 21 -21
13z"/>
<path d="M2227 1449 c7 -7 15 -10 18 -7 3 3 -2 9 -12 12 -14 6 -15 5 -6 -5z"/>
<path d="M910 1346 c0 -2 7 -7 16 -10 8 -3 12 -2 9 4 -6 10 -25 14 -25 6z"/>
<path d="M2298 1123 c-3 -4 3 -16 14 -25 21 -21 24 -11 4 15 -8 10 -16 15 -18
10z"/>
<path d="M2370 1039 c0 -5 5 -7 10 -4 6 3 10 8 10 11 0 2 -4 4 -10 4 -5 0 -10
-5 -10 -11z"/>
<path d="M2475 970 c-2 -3 5 -6 15 -7 11 -1 22 2 24 5 3 4 -4 8 -15 8 -11 0
-22 -3 -24 -6z"/>
<path d="M2986 972 c-3 -5 1 -9 9 -9 8 0 12 4 9 9 -3 4 -7 8 -9 8 -2 0 -6 -4
-9 -8z"/>
<path d="M266 458 c3 -4 9 -8 15 -8 5 0 9 4 9 8 0 5 -7 9 -15 9 -8 0 -12 -4
-9 -9z"/>
<path d="M2870 462 c0 -4 10 -9 22 -9 18 -2 20 0 8 7 -18 12 -30 13 -30 2z"/>
<path d="M2790 419 c0 -5 5 -7 10 -4 6 3 10 8 10 11 0 2 -4 4 -10 4 -5 0 -10
-5 -10 -11z"/>
<path d="M2746 397 c3 -10 9 -15 12 -12 3 3 0 11 -7 18 -10 9 -11 8 -5 -6z"/>
<path d="M455 390 c-3 -6 1 -7 9 -4 18 7 21 14 7 14 -6 0 -13 -4 -16 -10z"/>
<path d="M2680 385 c-7 -9 -8 -15 -2 -15 5 0 12 7 16 15 3 8 4 15 2 15 -2 0
-9 -7 -16 -15z"/>
</g>
</svg>
